# xmcd
#
# Track frame offsets:
#	293
#	17894
#	31040
#	46393
#	61549
#	79641
#	95315
#	114156
#	132051
#	150357
#	166498
#	193044
# Disc length: 3092 seconds
# Revision: 1
# Processed by: cddbd v1.5.2PL0 Copyright (c) Steve Scherf et al.
#
# Submitted via: libkcddb 0.31
#
DISCID=800c110c
DTITLE=Taylor Swift - Taylor Swift
DYEAR=2006
DGENRE=
TTITLE0=Tim McGraw
TTITLE1=Picture to burn
TTITLE2=Teardrops on my guitar
TTITLE3=A place in this World
TTITLE4=Cold as you
TTITLE5=The outside
TTITLE6=Tied together with a smile
TTITLE7=Stay beautiful
TTITLE8=Should've said no
TTITLE9=Mary's song (Oh my my my)
TTITLE10=Our Song
TTITLE11=Tim McGraw Video Extra
EXTD=
EXTT0=
EXTT1=
EXTT2=
EXTT3=
EXTT4=
EXTT5=
EXTT6=
EXTT7=
EXTT8=
EXTT9=
EXTT10=
EXTT11=
PLAYORDER=
